<svg version="1.1" viewBox="0 0 210 297" xmlns="http://www.w3.org/2000/svg">
	<g transform="matrix(.48721 0 0 .48721 125.78 -147.15)" stroke-width="2.0525">
		<g transform="translate(-493.71 187.85)" fill="#d7680f">
			<path transform="scale(.26458)" d="m1114.1 434.59c-6.7208-0.0385-12.497 4.7579-13.695 11.371l-5.8477 32.229c-20.108 4.7737-39.365 12.6-57.102 23.207l-26.654-18.918c-5.4795-3.8886-12.961-3.2791-17.738 1.4453l-42.057 41.582c-4.7783 4.7238-5.4727 12.197-1.6465 17.721l18.615 26.867c-10.809 17.615-18.855 36.782-23.857 56.834l-32.291 5.4805c-6.6266 1.1231-11.488 6.8454-11.525 13.566l-0.33594 59.139c-0.0378 6.7194 4.7574 12.495 11.369 13.693l32.229 5.8496c4.7744 20.107 12.602 39.364 23.209 57.1l-18.92 26.654c-3.8886 5.4795-3.2791 12.961 1.4453 17.738l41.582 42.059c4.7238 4.7783 12.197 5.4726 17.721 1.6465l26.869-18.615c17.614 10.808 36.781 18.853 56.832 23.855l5.4824 32.293c1.1229 6.626 6.8442 11.487 13.564 11.525l59.139 0.33593c6.7209 0.0385 12.497-4.7579 13.695-11.371l5.8477-32.227c20.107-4.7744 39.364-12.602 57.1-23.209l26.656 18.918c5.4795 3.8886 12.96 3.279 17.738-1.4453l42.057-41.582-88.303-62.289c-2.1425 2.5367-4.4951 5.0784-7.2011 7.7539-39.183 38.74-97.846 50.063-148.63 28.688-50.785-21.375-83.69-71.24-83.377-126.34 0.3131-55.1 33.782-104.59 84.807-125.38 51.024-20.797 109.55-8.8082 148.29 30.375 2.6755 2.7061 4.9996 5.273 7.1133 7.834l89.006-61.279-41.582-42.059c-4.7238-4.7783-12.197-5.4726-17.721-1.6465l-26.869 18.615c-17.614-10.808-36.781-18.853-56.832-23.855l-5.4825-32.293c-1.1229-6.6259-6.8441-11.487-13.564-11.525zm64.774 47.939c-0.081 0.31824-0.1416 0.641-0.1817 0.9668-12.291 746.73-432.58 51.935 0.1817-0.9668z" fill="#d7680f"/>
		</g>
		<g transform="matrix(.36605 0 0 -.36605 617.69 238.6)" stroke-width="1.4836">
			<g stroke-width="1.4836">
				<g stroke-width="1.4836">
					<g stroke-width="1.4836">
						<g stroke-width="1.4836">
							<g fill="#d7680f" stroke-width="1.4836">
								<path d="m-1769.6-357.87c1.3821 1.688 2.8674 3.2893 4.4473 4.7945h0.01c9.8286 9.439 22.939 14.693 36.566 14.654 0.8652 0 1.7373-0.0199 2.6092-0.063 27.998-1.6648 49.992-24.609 50.471-52.652 0.136-16.132-7.1182-31.439-19.69-41.549-2.2756-1.9271-3.5671-4.7734-3.5177-7.7548v-7.3901c-0.018-4.1998-2.671-7.9363-6.6309-9.3362v-3.9254c-0.01-2.4547-0.9303-4.8186-2.586-6.6308 3.4481-3.7481 3.4481-9.5136 0-13.262 3.676-4.0104 3.4045-10.241-0.6054-13.917-1.0635-0.97472-2.3283-1.7041-3.7046-2.1364-1.5135-8.9997-10.036-15.069-19.036-13.555-6.9453 1.1678-12.387 6.6097-13.555 13.555-5.1944 1.6158-8.0958 7.1364-6.48 12.331 0.4302 1.3825 1.1596 2.6536 2.1368 3.722-3.448 3.7481-3.448 9.5136 0 13.262-1.6556 1.8123-2.5773 4.1762-2.586 6.6308v3.9254c-3.9599 1.3999-6.6134 5.1364-6.6308 9.3362v7.7747c-0.058 2.9677-1.4493 5.7518-3.7863 7.5824-22.653 18.549-25.98 51.95-7.4311 74.603zm41.056-146.32c4.2139 6e-3 7.969 2.6598 9.3793 6.6308h-18.759c1.4104-3.971 5.1655-6.6258 9.3794-6.6308zm-13.262 13.262h26.523c1.8309 0 3.3154 1.4845 3.3154 3.3154s-1.4845 3.3154-3.3154 3.3154h-26.523c-1.8309 0-3.3154-1.4845-3.3154-3.3154s1.4845-3.3154 3.3154-3.3154zm0 13.262h26.523c1.8309 0 3.3154 1.4845 3.3154 3.3154 0 1.8309-1.4845 3.3154-3.3154 3.3154h-26.523c-1.8309 0-3.3154-1.4845-3.3154-3.3154 0-1.831 1.4845-3.3154 3.3154-3.3154zm-3.3154 16.577c0-1.8309 1.4845-3.3154 3.3154-3.3154h26.523c1.8309 0 3.3154 1.4845 3.3154 3.3154v3.3154h-33.154z"/>
								<path d="m-1728.6-331.79c-1.8309 0-3.3155 1.4845-3.3155 3.3154v13.262c0 1.8309 1.4846 3.3154 3.3155 3.3154s3.3155-1.4845 3.3155-3.3154v-13.262c0-1.8314-1.4841-3.3154-3.3155-3.3154z"/>
								<path d="m-1758.4-339.79c0-7.4e-4 -0.01-2e-3 -0.01-2e-3 -1.5859-0.91463-3.6137-0.37049-4.5284 1.2159 0 4.2e-4 -4e-4 7.5e-4 -4e-4 7.5e-4l-6.6308 11.481c-0.9258 1.5798-0.3962 3.6109 1.1836 4.5367s3.6109 0.3962 4.5367-1.1836c0.01-0.0124 0.015-0.0252 0.023-0.0381l6.6308-11.481c0.9171-1.5848 0.3754-3.613-1.2097-4.5297z"/>
								<path d="m-1784.8-362.87c-0.013 8e-3 -0.026 0.015-0.039 0.0223l-11.481 6.6308c-1.5919 0.9047-2.1489 2.9288-1.2441 4.5206 0.9046 1.5918 2.9287 2.1488 4.5205 1.2441 0.013-8e-3 0.026-0.015 0.039-0.0224l11.481-6.6308c1.5919-0.90469 2.149-2.9288 1.2442-4.5206-0.9047-1.5922-2.9288-2.1492-4.5205-1.2441z"/>
								<path d="m-1788.3-391.47c0-1.8309-1.4845-3.3154-3.3155-3.3154h-13.262c-1.8309 0-3.3155 1.4845-3.3155 3.3154s1.4846 3.3154 3.3155 3.3154h13.262c1.8314 0 3.3155-1.4845 3.3155-3.3154z"/>
								<path d="m-1796.3-426.75c0.012 8e-3 0.025 0.0145 0.038 0.0219l11.481 6.6308c1.5798 0.92582 3.611 0.39619 4.5368-1.1836 0.9258-1.5798 0.3961-3.6109-1.1836-4.5367-0.013-8e-3 -0.025-0.0145-0.038-0.0219l-11.481-6.6308c-1.5798-0.92583-3.6109-0.39619-4.5367 1.1836-0.9258 1.5794-0.3962 3.6105 1.1835 4.5367z"/>
								<path d="m-1674-419.65c0.5819 0 1.1538-0.15334 1.6577-0.44427l11.481-6.6308c1.5918-0.90511 2.1484-2.9292 1.2433-4.521s-2.9291-2.1484-4.521-1.2433c-0.012 7e-3 -0.025 0.0145-0.038 0.0219l-11.481 6.6308c-1.5856 0.91547-2.1289 2.9433-1.2134 4.5289 0.5929 1.0257 1.6871 1.6577 2.8716 1.6577z"/>
								<path d="m-1652.3-394.79h-13.262c-1.8309 0-3.3154 1.4845-3.3154 3.3154s1.4845 3.3154 3.3154 3.3154h13.262c1.8309 0 3.3154-1.4845 3.3154-3.3154s-1.484-3.3154-3.3154-3.3154z"/>
								<path d="m-1660.9-356.19c-0.013-8e-3 -0.026-0.015-0.039-0.0223l-11.481-6.6308c-1.5795-0.92624-3.611-0.3966-4.5372 1.1828-0.9263 1.5794-0.3966 3.6109 1.1828 4.5371 0.012 8e-3 0.026 0.015 0.039 0.0224l11.481 6.6308c1.5795 0.92624 3.611 0.39659 4.5372-1.1828 0.9263-1.5794 0.3966-3.6109-1.1827-4.5371z"/>
								<path d="m-1687.6-327.09-6.6308-11.481c-0.9047-1.5918-2.9287-2.1488-4.5205-1.2441-1.5919 0.9047-2.1489 2.9288-1.2442 4.5206 0.01 0.0128 0.015 0.0257 0.023 0.0385l6.6308 11.481c0.9048 1.5918 2.9288 2.1488 4.5206 1.2441 1.5918-0.90469 2.1489-2.9288 1.2441-4.5206-0.01-0.0128-0.015-0.0257-0.023-0.0385z"/>
							</g>
						</g>
					</g>
				</g>
			</g>
		</g>
		<g transform="matrix(1.9268 0 0 1.9268 -199.91 -2323.3)" fill="#86b135" stroke-width=".28185" style="font-feature-settings:normal;font-variant-caps:normal;font-variant-ligatures:normal;font-variant-numeric:normal" aria-label="ust    dian">
			<path d="m49.473 1390.6v25.918h-8.0273l0.13672-2.1484q-0.82031 1.3086-2.0312 1.9726-1.1914 0.6445-2.7539 0.6445-1.7773 0-2.9492-0.6249-1.1719-0.625-1.7383-1.6602-0.54687-1.0351-0.68359-2.1484-0.13672-1.1328-0.13672-4.4727v-17.48h7.8906v17.637q0 3.0273 0.17578 3.5937 0.19531 0.5664 1.0156 0.5664 0.8789 0 1.0352-0.5859 0.17578-0.5859 0.17578-3.7695v-17.441z" style="font-feature-settings:normal;font-variant-caps:normal;font-variant-ligatures:normal;font-variant-numeric:normal"/>
			<path d="m68.457 1398.9h-6.9921v-1.4063q0-1.7968-0.21484-2.2656-0.19531-0.4883-1.0156-0.4883-0.66406 0-0.99609 0.4493-0.33203 0.4296-0.33203 1.3085 0 1.1914 0.15625 1.7579 0.17578 0.5468 0.99609 1.2109 0.83984 0.664 3.418 1.9336 3.4375 1.6796 4.5117 3.164 1.0742 1.4844 1.0742 4.3164 0 3.164-0.82031 4.7851-0.82031 1.6016-2.7539 2.4805-1.9141 0.8593-4.6289 0.8593-3.0078 0-5.1562-0.9374-2.1289-0.9375-2.9297-2.5391-0.80078-1.6015-0.80078-4.8437v-1.25h6.9921v1.6406q0 2.0898 0.2539 2.7148 0.27344 0.625 1.0547 0.625 0.83984 0 1.1719-0.4101 0.33203-0.4297 0.33203-1.7774 0-1.8554-0.42968-2.3242-0.44922-0.4687-4.5898-2.7734-3.4765-1.9531-4.2383-3.5351-0.76171-1.6016-0.76171-3.7891 0-3.1054 0.82031-4.5703 0.82031-1.4843 2.7734-2.2851 1.9726-0.8008 4.5703-0.8008 2.5781 0 4.375 0.6641 1.8164 0.6445 2.7734 1.7187 0.97656 1.0742 1.1719 1.9922 0.21484 0.918 0.21484 2.8711z" style="font-feature-settings:normal;font-variant-caps:normal;font-variant-ligatures:normal;font-variant-numeric:normal"/>
			<path d="m79.492 1387.2v4.082h2.1289v4.1015h-2.1289v13.867q0 2.5586 0.2539 2.8516 0.27344 0.2929 2.207 0.2929v4.1797h-3.1836q-2.6953 0-3.8476-0.2148-1.1523-0.2344-2.0312-1.0352-0.8789-0.8203-1.0937-1.8555-0.21484-1.0546-0.21484-4.9218v-13.164h-1.6992v-4.1015h1.6992v-4.082z" style="font-feature-settings:normal;font-variant-caps:normal;font-variant-ligatures:normal;font-variant-numeric:normal"/>
			<path d="m129.43 1384.9v31.621h-7.8906v-1.875q-1.1328 1.1719-2.3828 1.7578-1.25 0.5859-2.6172 0.5859-1.8359 0-3.1836-0.957-1.3476-0.9765-1.7383-2.2461-0.37109-1.2695-0.37109-4.1406v-12.129q0-2.9883 0.37109-4.2383 0.39063-1.25 1.7578-2.1874 1.3672-0.9571 3.2617-0.9571 1.4648 0 2.6758 0.5274 1.2305 0.5273 2.2266 1.582v-7.3437zm-7.8906 12.226q0-1.4258-0.2539-1.9141-0.23438-0.4883-0.95703-0.4883-0.70312 0-0.95702 0.4493-0.23438 0.4296-0.23438 1.9531v12.695q0 1.582 0.23438 2.0899 0.23437 0.4882 0.89843 0.4882 0.76171 0 1.0156-0.5468 0.2539-0.5664 0.2539-2.7344z" style="font-feature-settings:normal;font-variant-caps:normal;font-variant-ligatures:normal;font-variant-numeric:normal"/>
			<path d="m140.39 1384.9v4.1211h-8.125v-4.1211zm0 5.7031v25.918h-8.125v-25.918z" style="font-feature-settings:normal;font-variant-caps:normal;font-variant-ligatures:normal;font-variant-numeric:normal"/>
			<path d="m150.25 1400.7h-7.4023v-1.7383q0-3.0078 0.68359-4.6289 0.70312-1.6406 2.793-2.8906t5.4297-1.25q4.0039 0 6.0351 1.4258 2.0312 1.4062 2.4414 3.4765 0.41015 2.0508 0.41015 8.4766v13.008h-7.6757v-2.3047q-0.72265 1.3867-1.875 2.0899-1.1328 0.6835-2.7148 0.6835-2.0703 0-3.8086-1.1523-1.7187-1.1719-1.7187-5.0976v-2.1289q0-2.9102 0.91796-3.9648 0.91797-1.0547 4.5508-2.461 3.8867-1.5234 4.1601-2.0507 0.27344-0.5274 0.27344-2.1485 0-2.0312-0.3125-2.6367-0.29297-0.625-0.99609-0.625-0.80078 0-0.99609 0.5274-0.19531 0.5078-0.19531 2.6758zm2.5 3.5546q-1.8945 1.3868-2.207 2.3243-0.29297 0.9374-0.29297 2.6953 0 2.0117 0.25391 2.5976 0.27343 0.5859 1.0547 0.5859 0.74218 0 0.95702-0.4492 0.23438-0.4687 0.23438-2.4218z" style="font-feature-settings:normal;font-variant-caps:normal;font-variant-ligatures:normal;font-variant-numeric:normal"/>
			<path d="m171.39 1390.6-0.13671 2.3828q0.85937-1.4258 2.0898-2.1289 1.25-0.7227 2.8711-0.7227 2.0312 0 3.3203 0.9571 1.2891 0.957 1.6602 2.4218 0.37109 1.4453 0.37109 4.8437v18.164h-7.8906v-17.949q0-2.6758-0.17578-3.2617-0.17578-0.586-0.97656-0.586-0.83984 0-1.0547 0.6836-0.21484 0.6641-0.21484 3.5938v17.519h-7.8906v-25.918z" style="font-feature-settings:normal;font-variant-caps:normal;font-variant-ligatures:normal;font-variant-numeric:normal"/>
		</g>
		<g transform="matrix(-2.8424 0 0 -4.0491 2566.7 5503.2)" fill="#d7680f" stroke-width=".16008" style="font-feature-settings:normal;font-variant-caps:normal;font-variant-ligatures:normal;font-variant-numeric:normal" aria-label="CMS">
			<path d="m846.05 1262.2v-1.4635h0.98031q0.42758 0 0.53187-0.049 0.10776-0.045 0.10776-0.2051 0-0.1807-0.12862-0.2294-0.12862-0.049-0.5562-0.049h-2.6142q-0.4102 0-0.53535 0.049-0.12514 0.049-0.12514 0.219 0 0.1634 0.12514 0.2121 0.12515 0.052 0.58749 0.052h0.70568v1.4635h-0.219q-0.87254 0-1.2376-0.1251-0.36501-0.1217-0.63963-0.5458-0.27463-0.4206-0.27463-1.0394 0-0.6431 0.23291-1.0603 0.23291-0.4171 0.64311-0.5527 0.41368-0.1356 1.241-0.1356h1.6443q0.60835 0 0.91078 0.042 0.30591 0.042 0.58749 0.2469 0.28158 0.2085 0.44149 0.5735 0.16338 0.3685 0.16338 0.8448 0 0.6466-0.25029 1.0672t-0.62573 0.5527q-0.37196 0.1321-1.1611 0.1321z" style="font-feature-settings:normal;font-variant-caps:normal;font-variant-ligatures:normal;font-variant-numeric:normal"/>
			<path d="m848.5 1267.3h-5.6281v-1.2793h3.7996l-3.7996-0.511v-0.9073l3.7127-0.5388h-3.7127v-1.2793h5.6281v1.8946q-0.50754 0.083-1.1958 0.1773l-1.4322 0.2016 2.6281 0.3337z" style="font-feature-settings:normal;font-variant-caps:normal;font-variant-ligatures:normal;font-variant-numeric:normal"/>
			<path d="m846.8 1271v-1.3592h0.41715q0.29201 0 0.37196-0.052 0.0799-0.052 0.0799-0.1738 0-0.1321-0.10776-0.2016-0.10776-0.066-0.32677-0.066-0.28158 0-0.4241 0.076-0.14253 0.073-0.34415 0.4137-0.58054 0.9768-0.9525 1.2306t-1.1993 0.2538q-0.6014 0-0.88645-0.1426-0.28505-0.139-0.47972-0.5422-0.1912-0.4033-0.1912-0.9386 0-0.5875 0.22248-1.0047 0.22248-0.4137 0.56663-0.5423t0.97683-0.1286h0.36849v1.3592h-0.68483q-0.31634 0-0.40672 0.056-0.0904 0.059-0.0904 0.2051 0 0.146 0.11471 0.2156 0.11472 0.073 0.34068 0.073 0.4971 0 0.65006-0.1356 0.15296-0.1391 0.51101-0.6848 0.36153-0.5458 0.52492-0.7231 0.16338-0.1773 0.45191-0.2955 0.28853-0.1147 0.73697-0.1147 0.64658 0 0.94554 0.1634 0.29896 0.1669 0.46582 0.5353 0.17034 0.3685 0.17034 0.89 0 0.5701-0.18424 0.9698-0.18424 0.4033-0.46582 0.5319-0.2781 0.1321-0.94902 0.1321z" style="font-feature-settings:normal;font-variant-caps:normal;font-variant-ligatures:normal;font-variant-numeric:normal"/>
		</g>
	</g>
</svg>
