<svg version="1.1" viewBox="0 0 210 297" xmlns="http://www.w3.org/2000/svg">
	<g transform="matrix(.487 0 0 .487 126 -147)" style="stroke-width:2.05">
		<g transform="translate(-494 188)" style="fill:#d7680f">
			<path transform="scale(.265)" d="m1114 435c-6.72-0.0385-12.5 4.76-13.7 11.4l-5.85 32.2c-20.1 4.77-39.4 12.6-57.1 23.2l-26.7-18.9c-5.48-3.89-13-3.28-17.7 1.45l-42.1 41.6c-4.78 4.72-5.47 12.2-1.65 17.7l18.6 26.9c-10.8 17.6-18.9 36.8-23.9 56.8l-32.3 5.48c-6.63 1.12-11.5 6.85-11.5 13.6l-0.336 59.1c-0.0378 6.72 4.76 12.5 11.4 13.7l32.2 5.85c4.77 20.1 12.6 39.4 23.2 57.1l-18.9 26.7c-3.89 5.48-3.28 13 1.45 17.7l41.6 42.1c4.72 4.78 12.2 5.47 17.7 1.65l26.9-18.6c17.6 10.8 36.8 18.9 56.8 23.9l5.48 32.3c1.12 6.63 6.84 11.5 13.6 11.5l59.1 0.336c6.72 0.0385 12.5-4.76 13.7-11.4l5.85-32.2c20.1-4.77 39.4-12.6 57.1-23.2l26.7 18.9c5.48 3.89 13 3.28 17.7-1.45l42.1-41.6-88.3-62.3c-2.14 2.54-4.5 5.08-7.2 7.75-39.2 38.7-97.8 50.1-149 28.7-50.8-21.4-83.7-71.2-83.4-126 0.313-55.1 33.8-105 84.8-125 51-20.8 110-8.81 148 30.4 2.68 2.71 5 5.27 7.11 7.83l89-61.3-41.6-42.1c-4.72-4.78-12.2-5.47-17.7-1.65l-26.9 18.6c-17.6-10.8-36.8-18.9-56.8-23.9l-5.48-32.3c-1.12-6.63-6.84-11.5-13.6-11.5zm64.8 47.9c-0.081 0.318-0.142 0.641-0.182 0.967-12.3 747-433 51.9 0.182-0.967z" style="fill:#d7680f"/>
		</g>
		<g transform="matrix(.366 0 0 -.366 618 239)" style="stroke-width:1.48">
			<g style="stroke-width:1.48">
				<g style="stroke-width:1.48">
					<g style="stroke-width:1.48">
						<g style="stroke-width:1.48">
							<g style="fill:#d7680f;stroke-width:1.48">
								<path d="m-1770-358c1.38 1.69 2.87 3.29 4.45 4.79h0.01c9.83 9.44 22.9 14.7 36.6 14.7 0.865 0 1.74-0.0199 2.61-0.063 28-1.66 50-24.6 50.5-52.7 0.136-16.1-7.12-31.4-19.7-41.5-2.28-1.93-3.57-4.77-3.52-7.75v-7.39c-0.018-4.2-2.67-7.94-6.63-9.34v-3.93c-0.01-2.45-0.93-4.82-2.59-6.63 3.45-3.75 3.45-9.51 0-13.3 3.68-4.01 3.4-10.2-0.605-13.9-1.06-0.975-2.33-1.7-3.7-2.14-1.51-9-10-15.1-19-13.6-6.95 1.17-12.4 6.61-13.6 13.6-5.19 1.62-8.1 7.14-6.48 12.3 0.43 1.38 1.16 2.65 2.14 3.72-3.45 3.75-3.45 9.51 0 13.3-1.66 1.81-2.58 4.18-2.59 6.63v3.93c-3.96 1.4-6.61 5.14-6.63 9.34v7.77c-0.058 2.97-1.45 5.75-3.79 7.58-22.7 18.5-26 52-7.43 74.6zm41.1-146c4.21 6e-3 7.97 2.66 9.38 6.63h-18.8c1.41-3.97 5.17-6.63 9.38-6.63zm-13.3 13.3h26.5c1.83 0 3.32 1.48 3.32 3.32s-1.48 3.32-3.32 3.32h-26.5c-1.83 0-3.32-1.48-3.32-3.32s1.48-3.32 3.32-3.32zm0 13.3h26.5c1.83 0 3.32 1.48 3.32 3.32 0 1.83-1.48 3.32-3.32 3.32h-26.5c-1.83 0-3.32-1.48-3.32-3.32 0-1.83 1.48-3.32 3.32-3.32zm-3.32 16.6c0-1.83 1.48-3.32 3.32-3.32h26.5c1.83 0 3.32 1.48 3.32 3.32v3.32h-33.2z" style="fill:#d7680f;stroke-width:1.48"/>
								<path d="m-1729-332c-1.83 0-3.32 1.48-3.32 3.32v13.3c0 1.83 1.48 3.32 3.32 3.32s3.32-1.48 3.32-3.32v-13.3c0-1.83-1.48-3.32-3.32-3.32z" style="fill:#d7680f;stroke-width:1.48"/>
								<path d="m-1758-340c0-7.4e-4 -0.01-2e-3 -0.01-2e-3 -1.59-0.915-3.61-0.37-4.53 1.22 0 4.2e-4 -4e-4 7.5e-4 -4e-4 7.5e-4l-6.63 11.5c-0.926 1.58-0.396 3.61 1.18 4.54s3.61 0.396 4.54-1.18c0.01-0.0124 0.015-0.0252 0.023-0.0381l6.63-11.5c0.917-1.58 0.375-3.61-1.21-4.53z" style="fill:#d7680f;stroke-width:1.48"/>
								<path d="m-1785-363c-0.013 8e-3 -0.026 0.015-0.039 0.0223l-11.5 6.63c-1.59 0.905-2.15 2.93-1.24 4.52 0.905 1.59 2.93 2.15 4.52 1.24 0.013-8e-3 0.026-0.015 0.039-0.0224l11.5-6.63c1.59-0.905 2.15-2.93 1.24-4.52-0.905-1.59-2.93-2.15-4.52-1.24z" style="fill:#d7680f;stroke-width:1.48"/>
								<path d="m-1788-391c0-1.83-1.48-3.32-3.32-3.32h-13.3c-1.83 0-3.32 1.48-3.32 3.32s1.48 3.32 3.32 3.32h13.3c1.83 0 3.32-1.48 3.32-3.32z" style="fill:#d7680f;stroke-width:1.48"/>
								<path d="m-1796-427c0.012 8e-3 0.025 0.0145 0.038 0.0219l11.5 6.63c1.58 0.926 3.61 0.396 4.54-1.18 0.926-1.58 0.396-3.61-1.18-4.54-0.013-8e-3 -0.025-0.0145-0.038-0.0219l-11.5-6.63c-1.58-0.926-3.61-0.396-4.54 1.18-0.926 1.58-0.396 3.61 1.18 4.54z" style="fill:#d7680f;stroke-width:1.48"/>
								<path d="m-1674-420c0.582 0 1.15-0.153 1.66-0.444l11.5-6.63c1.59-0.905 2.15-2.93 1.24-4.52s-2.93-2.15-4.52-1.24c-0.012 7e-3 -0.025 0.0145-0.038 0.0219l-11.5 6.63c-1.59 0.915-2.13 2.94-1.21 4.53 0.593 1.03 1.69 1.66 2.87 1.66z" style="fill:#d7680f;stroke-width:1.48"/>
								<path d="m-1652-395h-13.3c-1.83 0-3.32 1.48-3.32 3.32s1.48 3.32 3.32 3.32h13.3c1.83 0 3.32-1.48 3.32-3.32s-1.48-3.32-3.32-3.32z" style="fill:#d7680f;stroke-width:1.48"/>
								<path d="m-1661-356c-0.013-8e-3 -0.026-0.015-0.039-0.0223l-11.5-6.63c-1.58-0.926-3.61-0.397-4.54 1.18-0.926 1.58-0.397 3.61 1.18 4.54 0.012 8e-3 0.026 0.015 0.039 0.0224l11.5 6.63c1.58 0.926 3.61 0.397 4.54-1.18 0.926-1.58 0.397-3.61-1.18-4.54z" style="fill:#d7680f;stroke-width:1.48"/>
								<path d="m-1688-327-6.63-11.5c-0.905-1.59-2.93-2.15-4.52-1.24-1.59 0.905-2.15 2.93-1.24 4.52 0.01 0.0128 0.015 0.0257 0.023 0.0385l6.63 11.5c0.905 1.59 2.93 2.15 4.52 1.24 1.59-0.905 2.15-2.93 1.24-4.52-0.01-0.0128-0.015-0.0257-0.023-0.0385z" style="fill:#d7680f;stroke-width:1.48"/>
							</g>
						</g>
					</g>
				</g>
			</g>
		</g>
		<g transform="matrix(1.93 0 0 1.93 -200 -2323)" style="fill:#86b135;font-feature-settings:normal;font-variant-caps:normal;font-variant-ligatures:normal;font-variant-numeric:normal" aria-label="ust    dian">
			<path d="m49.5 1391v25.9h-8.03l0.137-2.15q-0.82 1.31-2.03 1.97-1.19 0.644-2.75 0.644-1.78 0-2.95-0.625-1.17-0.625-1.74-1.66-0.547-1.04-0.684-2.15-0.137-1.13-0.137-4.47v-17.5h7.89v17.6q0 3.03 0.176 3.59 0.195 0.566 1.02 0.566 0.879 0 1.04-0.586 0.176-0.586 0.176-3.77v-17.4z" style="fill:#86b135;font-feature-settings:normal;font-variant-caps:normal;font-variant-ligatures:normal;font-variant-numeric:normal;stroke-width:.282"/>
			<path d="m68.5 1399h-6.99v-1.41q0-1.8-0.215-2.27-0.195-0.488-1.02-0.488-0.664 0-0.996 0.449-0.332 0.43-0.332 1.31 0 1.19 0.156 1.76 0.176 0.547 0.996 1.21 0.84 0.664 3.42 1.93 3.44 1.68 4.51 3.16 1.07 1.48 1.07 4.32 0 3.16-0.82 4.79-0.82 1.6-2.75 2.48-1.91 0.859-4.63 0.859-3.01 0-5.16-0.937-2.13-0.938-2.93-2.54-0.801-1.6-0.801-4.84v-1.25h6.99v1.64q0 2.09 0.254 2.71 0.273 0.625 1.05 0.625 0.84 0 1.17-0.41 0.332-0.43 0.332-1.78 0-1.86-0.43-2.32-0.449-0.469-4.59-2.77-3.48-1.95-4.24-3.54-0.762-1.6-0.762-3.79 0-3.11 0.82-4.57 0.82-1.48 2.77-2.29 1.97-0.801 4.57-0.801 2.58 0 4.37 0.664 1.82 0.644 2.77 1.72 0.977 1.07 1.17 1.99 0.215 0.918 0.215 2.87z" style="fill:#86b135;font-feature-settings:normal;font-variant-caps:normal;font-variant-ligatures:normal;font-variant-numeric:normal;stroke-width:.282"/>
			<path d="m79.5 1387v4.08h2.13v4.1h-2.13v13.9q0 2.56 0.254 2.85 0.273 0.293 2.21 0.293v4.18h-3.18q-2.7 0-3.85-0.215-1.15-0.234-2.03-1.04-0.879-0.82-1.09-1.86-0.215-1.05-0.215-4.92v-13.2h-1.7v-4.1h1.7v-4.08z" style="fill:#86b135;font-feature-settings:normal;font-variant-caps:normal;font-variant-ligatures:normal;font-variant-numeric:normal;stroke-width:.282"/>
			<path d="m129 1385v31.6h-7.89v-1.88q-1.13 1.17-2.38 1.76-1.25 0.586-2.62 0.586-1.84 0-3.18-0.957-1.35-0.976-1.74-2.25-0.371-1.27-0.371-4.14v-12.1q0-2.99 0.371-4.24 0.391-1.25 1.76-2.19 1.37-0.957 3.26-0.957 1.46 0 2.68 0.527 1.23 0.527 2.23 1.58v-7.34zm-7.89 12.2q0-1.43-0.254-1.91-0.234-0.488-0.957-0.488-0.703 0-0.957 0.449-0.234 0.43-0.234 1.95v12.7q0 1.58 0.234 2.09 0.234 0.488 0.898 0.488 0.762 0 1.02-0.547 0.254-0.566 0.254-2.73z" style="fill:#86b135;font-feature-settings:normal;font-variant-caps:normal;font-variant-ligatures:normal;font-variant-numeric:normal;stroke-width:.282"/>
			<path d="m140 1385v4.12h-8.12v-4.12zm0 5.7v25.9h-8.12v-25.9z" style="fill:#86b135;font-feature-settings:normal;font-variant-caps:normal;font-variant-ligatures:normal;font-variant-numeric:normal;stroke-width:.282"/>
			<path d="m150 1401h-7.4v-1.74q0-3.01 0.684-4.63 0.703-1.64 2.79-2.89t5.43-1.25q4 0 6.04 1.43 2.03 1.41 2.44 3.48 0.41 2.05 0.41 8.48v13h-7.68v-2.3q-0.723 1.39-1.87 2.09-1.13 0.684-2.71 0.684-2.07 0-3.81-1.15-1.72-1.17-1.72-5.1v-2.13q0-2.91 0.918-3.96 0.918-1.05 4.55-2.46 3.89-1.52 4.16-2.05 0.273-0.527 0.273-2.15 0-2.03-0.312-2.64-0.293-0.625-0.996-0.625-0.801 0-0.996 0.527-0.195 0.508-0.195 2.68zm2.5 3.55q-1.89 1.39-2.21 2.32-0.293 0.937-0.293 2.7 0 2.01 0.254 2.6 0.273 0.586 1.05 0.586 0.742 0 0.957-0.449 0.234-0.469 0.234-2.42z" style="fill:#86b135;font-feature-settings:normal;font-variant-caps:normal;font-variant-ligatures:normal;font-variant-numeric:normal;stroke-width:.282"/>
			<path d="m171 1391-0.137 2.38q0.859-1.43 2.09-2.13 1.25-0.723 2.87-0.723 2.03 0 3.32 0.957 1.29 0.957 1.66 2.42 0.371 1.45 0.371 4.84v18.2h-7.89v-17.9q0-2.68-0.176-3.26-0.176-0.586-0.977-0.586-0.84 0-1.05 0.684-0.215 0.664-0.215 3.59v17.5h-7.89v-25.9z" style="fill:#86b135;font-feature-settings:normal;font-variant-caps:normal;font-variant-ligatures:normal;font-variant-numeric:normal;stroke-width:.282"/>
		</g>
		<g transform="matrix(-2.84 0 0 -4.05 2567 5503)" style="fill:#d7680f;font-feature-settings:normal;font-variant-caps:normal;font-variant-ligatures:normal;font-variant-numeric:normal" aria-label="CMS">
			<path d="m846 1262v-1.46h0.98q0.428 0 0.532-0.049 0.108-0.045 0.108-0.205 0-0.181-0.129-0.229-0.129-0.049-0.556-0.049h-2.61q-0.41 0-0.535 0.049-0.125 0.049-0.125 0.219 0 0.163 0.125 0.212 0.125 0.052 0.587 0.052h0.706v1.46h-0.219q-0.873 0-1.24-0.125-0.365-0.122-0.64-0.546-0.275-0.421-0.275-1.04 0-0.643 0.233-1.06 0.233-0.417 0.643-0.553 0.414-0.136 1.24-0.136h1.64q0.608 0 0.911 0.042 0.306 0.042 0.587 0.247 0.282 0.208 0.441 0.574 0.163 0.368 0.163 0.845 0 0.647-0.25 1.07t-0.626 0.553q-0.372 0.132-1.16 0.132z" style="fill:#d7680f;font-feature-settings:normal;font-variant-caps:normal;font-variant-ligatures:normal;font-variant-numeric:normal;stroke-width:.16"/>
			<path d="m849 1267h-5.63v-1.28h3.8l-3.8-0.511v-0.907l3.71-0.539h-3.71v-1.28h5.63v1.89q-0.508 0.083-1.2 0.177l-1.43 0.202 2.63 0.334z" style="fill:#d7680f;font-feature-settings:normal;font-variant-caps:normal;font-variant-ligatures:normal;font-variant-numeric:normal;stroke-width:.16"/>
			<path d="m847 1271v-1.36h0.417q0.292 0 0.372-0.052 0.0799-0.052 0.0799-0.174 0-0.132-0.108-0.202-0.108-0.066-0.327-0.066-0.282 0-0.424 0.076-0.143 0.073-0.344 0.414-0.581 0.977-0.952 1.23t-1.2 0.254q-0.601 0-0.886-0.143-0.285-0.139-0.48-0.542-0.191-0.403-0.191-0.939 0-0.588 0.222-1 0.222-0.414 0.567-0.542t0.977-0.129h0.368v1.36h-0.685q-0.316 0-0.407 0.056-0.0904 0.059-0.0904 0.205 0 0.146 0.115 0.216 0.115 0.073 0.341 0.073 0.497 0 0.65-0.136 0.153-0.139 0.511-0.685 0.362-0.546 0.525-0.723 0.163-0.177 0.452-0.296 0.289-0.115 0.737-0.115 0.647 0 0.946 0.163 0.299 0.167 0.466 0.535 0.17 0.368 0.17 0.89 0 0.57-0.184 0.97-0.184 0.403-0.466 0.532-0.278 0.132-0.949 0.132z" style="fill:#d7680f;font-feature-settings:normal;font-variant-caps:normal;font-variant-ligatures:normal;font-variant-numeric:normal;stroke-width:.16"/>
		</g>
	</g>
</svg>
